<svg xmlns="http://www.w3.org/2000/svg" xmlns:xlink="http://www.w3.org/1999/xlink" width="480" zoomAndPan="magnify" viewBox="0 0 360 359.999987" height="480" preserveAspectRatio="xMidYMid meet" version="1.0"><defs><g/></defs><rect x="-36" width="432" fill="#ffffff" y="-35.999999" height="431.999984" fill-opacity="1"/><rect x="-36" width="432" fill="#ffbd59" y="-35.999999" height="431.999984" fill-opacity="1"/><path fill="#000000" d="M 25.566406 272.945312 C 22.703125 272.945312 20.390625 270.625 20.390625 267.769531 L 20.390625 58.792969 C 20.390625 43.070312 33.183594 30.28125 48.90625 30.28125 L 123.964844 30.28125 C 138.34375 30.28125 150.269531 40.984375 152.203125 54.835938 L 280.117188 54.835938 C 297.527344 54.835938 311.691406 69.007812 311.691406 86.425781 L 311.691406 122.433594 C 311.691406 125.292969 309.378906 127.609375 306.515625 127.609375 C 303.652344 127.609375 301.339844 125.292969 301.339844 122.433594 L 301.339844 86.425781 C 301.339844 74.714844 291.816406 65.191406 280.117188 65.191406 L 147.300781 65.191406 C 144.4375 65.191406 142.121094 62.871094 142.121094 60.015625 L 142.121094 58.792969 C 142.121094 48.78125 133.976562 40.636719 123.964844 40.636719 L 48.90625 40.636719 C 38.890625 40.636719 30.746094 48.78125 30.746094 58.792969 L 30.746094 267.769531 C 30.746094 270.632812 28.429688 272.945312 25.566406 272.945312 Z M 25.566406 272.945312 " fill-opacity="1" fill-rule="nonzero"/><path fill="#000000" d="M 286.871094 292.09375 L 41.582031 292.09375 C 34.890625 292.09375 29.027344 289.457031 25.0625 284.652344 C 21.117188 279.878906 19.578125 273.371094 20.839844 266.789062 L 45.214844 140.601562 C 47.71875 127.722656 60.339844 117.25 73.351562 117.25 L 318.636719 117.25 C 325.335938 117.25 331.210938 119.902344 335.175781 124.710938 C 339.121094 129.488281 340.65625 135.996094 339.382812 142.5625 L 315.007812 268.746094 C 312.503906 281.628906 299.886719 292.09375 286.871094 292.09375 Z M 73.34375 127.609375 C 65.1875 127.609375 56.953125 134.464844 55.375 142.570312 L 31.003906 268.753906 C 30.320312 272.335938 31.039062 275.644531 33.042969 278.058594 C 35.007812 280.4375 38.039062 281.742188 41.582031 281.742188 L 286.871094 281.742188 C 295.035156 281.742188 303.265625 274.890625 304.839844 266.785156 L 329.214844 140.601562 C 329.902344 137.027344 329.183594 133.722656 327.183594 131.308594 C 325.214844 128.921875 322.175781 127.609375 318.628906 127.609375 Z M 73.34375 127.609375 " fill-opacity="1" fill-rule="nonzero"/><path fill="#000000" d="M 50.460938 146.019531 C 47.597656 146.019531 45.285156 143.699219 45.285156 140.84375 L 45.285156 92.5 C 45.285156 87.753906 49.140625 83.894531 53.882812 83.894531 L 272.769531 83.894531 C 277.5 83.894531 281.351562 87.757812 281.351562 92.5 L 281.351562 122.4375 C 281.351562 125.296875 279.039062 127.617188 276.175781 127.617188 C 273.3125 127.617188 271 125.296875 271 122.4375 L 271 94.25 L 55.636719 94.25 L 55.636719 140.84375 C 55.636719 143.699219 53.324219 146.019531 50.460938 146.019531 Z M 50.460938 146.019531 " fill-opacity="1" fill-rule="nonzero"/><g fill="#000000" fill-opacity="1"><g transform="translate(82.732769, 337.946776)"><g><path d="M 13.5 -27.21875 L 11.09375 -27.21875 L 11.09375 -15.125 L 13.671875 -15.125 C 14.523438 -15.164062 15.222656 -15.203125 15.765625 -15.234375 C 16.304688 -15.273438 16.707031 -15.332031 16.96875 -15.40625 C 18.425781 -15.8125 19.441406 -16.460938 20.015625 -17.359375 C 20.597656 -18.253906 20.890625 -19.46875 20.890625 -21 C 20.890625 -21.414062 20.878906 -21.789062 20.859375 -22.125 C 20.847656 -22.457031 20.820312 -22.71875 20.78125 -22.90625 C 20.519531 -23.914062 20.144531 -24.703125 19.65625 -25.265625 C 19.175781 -25.828125 18.625 -26.253906 18 -26.546875 C 17.382812 -26.847656 16.691406 -27.035156 15.921875 -27.109375 C 15.160156 -27.179688 14.351562 -27.21875 13.5 -27.21875 Z M 9.46875 -30.296875 C 14.65625 -30.296875 17.882812 -30.164062 19.15625 -29.90625 C 21.175781 -29.5 22.863281 -28.789062 24.21875 -27.78125 C 25.582031 -26.769531 26.507812 -25.554688 27 -24.140625 C 27.5625 -22.722656 27.71875 -21.25 27.46875 -19.71875 C 27.226562 -18.1875 26.679688 -16.898438 25.828125 -15.859375 C 25.117188 -15.035156 24.304688 -14.390625 23.390625 -13.921875 C 22.472656 -13.453125 21.5 -13.09375 20.46875 -12.84375 C 19.445312 -12.601562 18.398438 -12.445312 17.328125 -12.375 C 16.265625 -12.300781 15.234375 -12.25 14.234375 -12.21875 L 11.09375 -12.15625 L 11.09375 -8.234375 C 11.09375 -6.929688 11.097656 -5.929688 11.109375 -5.234375 C 11.128906 -4.546875 11.160156 -4.128906 11.203125 -3.984375 C 11.316406 -3.492188 11.800781 -3.132812 12.65625 -2.90625 C 13.40625 -2.71875 13.875 -2.421875 14.0625 -2.015625 C 14.207031 -1.710938 14.210938 -1.382812 14.078125 -1.03125 C 13.953125 -0.675781 13.722656 -0.425781 13.390625 -0.28125 C 13.203125 -0.132812 11.367188 -0.0625 7.890625 -0.0625 C 4.421875 -0.0625 2.59375 -0.132812 2.40625 -0.28125 C 2.21875 -0.394531 2.050781 -0.546875 1.90625 -0.734375 C 1.644531 -1.253906 1.644531 -1.753906 1.90625 -2.234375 C 2.09375 -2.578125 2.539062 -2.800781 3.25 -2.90625 C 4.03125 -3.09375 4.5 -3.410156 4.65625 -3.859375 C 4.6875 -4.015625 4.710938 -5.003906 4.734375 -6.828125 C 4.753906 -8.660156 4.742188 -11.390625 4.703125 -15.015625 L 4.703125 -25.828125 L 4.421875 -26.328125 C 4.234375 -26.660156 3.972656 -26.90625 3.640625 -27.0625 C 2.742188 -27.425781 2.222656 -27.722656 2.078125 -27.953125 C 1.816406 -28.328125 1.738281 -28.71875 1.84375 -29.125 C 1.914062 -29.3125 2.035156 -29.515625 2.203125 -29.734375 C 2.378906 -29.960938 2.5625 -30.113281 2.75 -30.1875 C 2.96875 -30.257812 5.207031 -30.296875 9.46875 -30.296875 Z M 9.46875 -30.296875 "/></g></g></g><g fill="#000000" fill-opacity="1"><g transform="translate(111.523598, 337.946776)"><g><path d="M 14.671875 -18.828125 C 14.378906 -18.929688 13.921875 -19.007812 13.296875 -19.0625 C 12.679688 -19.125 12.207031 -19.117188 11.875 -19.046875 C 10.75 -18.785156 9.800781 -18.140625 9.03125 -17.109375 C 8.269531 -16.085938 7.800781 -14.789062 7.625 -13.21875 C 7.539062 -12.46875 7.488281 -11.726562 7.46875 -11 C 7.457031 -10.28125 7.488281 -9.582031 7.5625 -8.90625 C 7.75 -7.414062 8.160156 -6.164062 8.796875 -5.15625 C 9.429688 -4.144531 10.253906 -3.472656 11.265625 -3.140625 C 12.234375 -2.835938 13.144531 -2.757812 14 -2.90625 C 15.414062 -3.207031 16.515625 -4.054688 17.296875 -5.453125 C 18.085938 -6.859375 18.484375 -8.679688 18.484375 -10.921875 C 18.484375 -12.941406 18.144531 -14.640625 17.46875 -16.015625 C 16.800781 -17.398438 15.867188 -18.335938 14.671875 -18.828125 Z M 10.53125 -21.953125 C 11.832031 -22.179688 13.304688 -22.203125 14.953125 -22.015625 C 17.046875 -21.710938 18.785156 -21.132812 20.171875 -20.28125 C 21.171875 -19.570312 21.988281 -18.769531 22.625 -17.875 C 23.375 -16.820312 23.925781 -15.695312 24.28125 -14.5 C 24.632812 -13.3125 24.8125 -12.046875 24.8125 -10.703125 C 24.8125 -9.460938 24.644531 -8.300781 24.3125 -7.21875 C 23.894531 -5.6875 23.15625 -4.34375 22.09375 -3.1875 C 21.03125 -2.03125 19.804688 -1.191406 18.421875 -0.671875 C 17.753906 -0.410156 17.019531 -0.203125 16.21875 -0.046875 C 15.414062 0.0976562 14.546875 0.1875 13.609375 0.21875 C 11.742188 0.257812 10.082031 0.09375 8.625 -0.28125 C 6.71875 -0.84375 5.148438 -1.765625 3.921875 -3.046875 C 2.691406 -4.335938 1.832031 -6.046875 1.34375 -8.171875 C 1.269531 -8.472656 1.210938 -8.875 1.171875 -9.375 C 1.140625 -9.882812 1.125 -10.457031 1.125 -11.09375 C 1.125 -12.394531 1.175781 -13.347656 1.28125 -13.953125 C 1.625 -15.515625 2.269531 -16.851562 3.21875 -17.96875 C 4.175781 -19.09375 5.378906 -20.03125 6.828125 -20.78125 C 7.953125 -21.34375 9.1875 -21.734375 10.53125 -21.953125 Z M 10.53125 -21.953125 "/></g></g></g><g fill="#000000" fill-opacity="1"><g transform="translate(137.45775, 337.946776)"><g><path d="M 5.765625 -21.34375 C 6.890625 -21.644531 7.75 -21.867188 8.34375 -22.015625 C 8.945312 -22.160156 9.300781 -22.234375 9.40625 -22.234375 C 9.75 -22.234375 9.957031 -22.117188 10.03125 -21.890625 C 10.101562 -21.671875 10.140625 -21.132812 10.140625 -20.28125 L 10.140625 -19.09375 L 10.53125 -19.546875 C 11.238281 -20.410156 12.148438 -21.054688 13.265625 -21.484375 C 14.390625 -21.910156 15.492188 -22.125 16.578125 -22.125 C 17.472656 -22.125 18.296875 -21.910156 19.046875 -21.484375 C 19.796875 -21.054688 20.265625 -20.503906 20.453125 -19.828125 C 20.742188 -18.929688 20.664062 -18.085938 20.21875 -17.296875 C 19.769531 -16.515625 19.0625 -16.070312 18.09375 -15.96875 C 17.382812 -15.8125 16.710938 -15.882812 16.078125 -16.1875 C 15.398438 -16.488281 14.894531 -17.050781 14.5625 -17.875 L 14.28125 -18.546875 L 13.890625 -18.546875 C 13.367188 -18.546875 12.789062 -18.195312 12.15625 -17.5 C 11.519531 -16.8125 11.015625 -16.039062 10.640625 -15.1875 C 10.566406 -14.882812 10.492188 -14.570312 10.421875 -14.25 C 10.347656 -13.9375 10.289062 -13.59375 10.25 -13.21875 C 10.207031 -12.882812 10.175781 -12.34375 10.15625 -11.59375 C 10.144531 -10.84375 10.140625 -9.875 10.140625 -8.6875 C 10.140625 -7.257812 10.15625 -6.109375 10.1875 -5.234375 C 10.226562 -4.359375 10.285156 -3.847656 10.359375 -3.703125 C 10.660156 -3.066406 11.203125 -2.671875 11.984375 -2.515625 C 12.660156 -2.410156 13.09375 -2.148438 13.28125 -1.734375 C 13.46875 -1.429688 13.492188 -1.128906 13.359375 -0.828125 C 13.222656 -0.535156 13.007812 -0.332031 12.71875 -0.21875 C 12.53125 -0.0703125 10.789062 0 7.5 0 C 4.21875 0 2.484375 -0.0546875 2.296875 -0.171875 C 1.773438 -0.359375 1.492188 -0.664062 1.453125 -1.09375 C 1.421875 -1.519531 1.609375 -1.921875 2.015625 -2.296875 C 2.203125 -2.410156 2.445312 -2.519531 2.75 -2.625 C 3.382812 -2.8125 3.785156 -3.070312 3.953125 -3.40625 C 4.117188 -3.75 4.203125 -4.21875 4.203125 -4.8125 L 4.203125 -10.640625 C 4.203125 -15.085938 4.164062 -17.457031 4.09375 -17.75 C 3.9375 -18.351562 3.445312 -18.75 2.625 -18.9375 C 1.957031 -19.125 1.625 -19.382812 1.625 -19.71875 C 1.625 -19.863281 1.671875 -20.019531 1.765625 -20.1875 C 1.859375 -20.363281 2 -20.46875 2.1875 -20.5 C 2.445312 -20.539062 2.742188 -20.597656 3.078125 -20.671875 C 3.710938 -20.859375 4.609375 -21.082031 5.765625 -21.34375 Z M 5.765625 -21.34375 "/></g></g></g><g fill="#000000" fill-opacity="1"><g transform="translate(158.40672, 337.946776)"><g><path d="M 7.28125 -29.359375 C 7.507812 -29.429688 7.828125 -29.46875 8.234375 -29.46875 C 8.753906 -29.46875 9.109375 -29.390625 9.296875 -29.234375 C 9.628906 -29.085938 9.835938 -28.8125 9.921875 -28.40625 C 9.953125 -28.21875 9.96875 -27.84375 9.96875 -27.28125 C 9.96875 -26.71875 9.96875 -25.96875 9.96875 -25.03125 L 9.96875 -21.84375 L 12.09375 -21.796875 C 13.550781 -21.710938 14.335938 -21.617188 14.453125 -21.515625 C 14.941406 -21.171875 15.1875 -20.757812 15.1875 -20.28125 C 15.1875 -19.644531 14.882812 -19.195312 14.28125 -18.9375 C 14.019531 -18.820312 13.238281 -18.765625 11.9375 -18.765625 L 9.96875 -18.765625 L 10.03125 -12.046875 C 10.03125 -7.335938 10.101562 -4.851562 10.25 -4.59375 C 10.476562 -4.144531 10.945312 -3.921875 11.65625 -3.921875 C 12.132812 -3.921875 12.539062 -4.03125 12.875 -4.25 C 13.21875 -4.476562 13.6875 -4.929688 14.28125 -5.609375 C 14.726562 -6.054688 15.160156 -6.128906 15.578125 -5.828125 C 15.722656 -5.679688 15.796875 -5.4375 15.796875 -5.09375 C 15.796875 -3.53125 15.207031 -2.289062 14.03125 -1.375 C 12.851562 -0.457031 11.390625 0.0546875 9.640625 0.171875 C 6.421875 0.359375 4.398438 -0.835938 3.578125 -3.421875 L 3.3125 -4.140625 L 3.3125 -11.65625 L 3.25 -18.765625 L 2.6875 -18.765625 C 1.976562 -18.765625 1.457031 -18.988281 1.125 -19.4375 C 0.9375 -19.695312 0.84375 -20.070312 0.84375 -20.5625 C 0.800781 -21.226562 0.882812 -21.703125 1.09375 -21.984375 C 1.300781 -22.265625 1.738281 -22.519531 2.40625 -22.75 C 3.457031 -23.113281 4.296875 -23.765625 4.921875 -24.703125 C 5.484375 -25.523438 5.953125 -26.515625 6.328125 -27.671875 C 6.585938 -28.566406 6.90625 -29.128906 7.28125 -29.359375 Z M 7.28125 -29.359375 "/></g></g></g><g fill="#000000" fill-opacity="1"><g transform="translate(175.266723, 337.946776)"><g><path d="M 14.515625 -33.15625 C 15.109375 -33.15625 15.722656 -33.085938 16.359375 -32.953125 C 16.992188 -32.828125 17.609375 -32.632812 18.203125 -32.375 C 18.796875 -32.113281 19.34375 -31.773438 19.84375 -31.359375 C 20.351562 -30.953125 20.738281 -30.46875 21 -29.90625 C 21.1875 -29.457031 21.28125 -28.972656 21.28125 -28.453125 C 21.28125 -27.929688 21.1875 -27.519531 21 -27.21875 C 20.519531 -26.175781 19.679688 -25.65625 18.484375 -25.65625 C 17.097656 -25.65625 16.203125 -26.140625 15.796875 -27.109375 C 15.535156 -27.785156 15.609375 -28.492188 16.015625 -29.234375 C 16.203125 -29.578125 16.28125 -29.800781 16.25 -29.90625 C 15.988281 -30.46875 15.484375 -30.75 14.734375 -30.75 C 14.054688 -30.75 13.53125 -30.5625 13.15625 -30.1875 C 12.789062 -29.8125 12.515625 -29.34375 12.328125 -28.78125 C 12.140625 -28.226562 12.023438 -27.632812 11.984375 -27 C 11.953125 -26.363281 11.9375 -25.800781 11.9375 -25.3125 L 11.9375 -21.953125 L 15.1875 -21.953125 C 16.53125 -21.953125 17.332031 -21.878906 17.59375 -21.734375 C 18.070312 -21.472656 18.367188 -21.082031 18.484375 -20.5625 C 18.597656 -20.039062 18.46875 -19.550781 18.09375 -19.09375 C 17.863281 -18.832031 17.59375 -18.675781 17.28125 -18.625 C 16.96875 -18.570312 16.285156 -18.546875 15.234375 -18.546875 L 11.9375 -18.546875 L 11.9375 -4.421875 C 12.195312 -3.597656 12.867188 -3.078125 13.953125 -2.859375 C 14.953125 -2.597656 15.453125 -2.128906 15.453125 -1.453125 C 15.453125 -0.890625 15.210938 -0.476562 14.734375 -0.21875 C 14.546875 -0.113281 12.492188 -0.078125 8.578125 -0.109375 L 2.75 -0.109375 L 2.359375 -0.5 C 2.085938 -0.726562 1.953125 -1.03125 1.953125 -1.40625 C 1.953125 -1.851562 2.128906 -2.1875 2.484375 -2.40625 C 2.847656 -2.632812 3.234375 -2.785156 3.640625 -2.859375 C 4.609375 -3.046875 5.300781 -3.507812 5.71875 -4.25 C 5.863281 -4.4375 5.9375 -4.832031 5.9375 -5.4375 L 5.9375 -11.03125 L 6 -18.546875 L 3.703125 -18.546875 C 2.835938 -18.546875 2.265625 -18.5625 1.984375 -18.59375 C 1.703125 -18.632812 1.453125 -18.765625 1.234375 -18.984375 C 0.859375 -19.328125 0.671875 -19.726562 0.671875 -20.1875 C 0.671875 -20.65625 0.835938 -21.054688 1.171875 -21.390625 C 1.398438 -21.660156 1.65625 -21.820312 1.9375 -21.875 C 2.21875 -21.925781 2.785156 -21.953125 3.640625 -21.953125 C 4.128906 -21.992188 4.601562 -22.015625 5.0625 -22.015625 C 5.53125 -22.015625 5.785156 -22.050781 5.828125 -22.125 C 5.828125 -22.125 5.832031 -22.265625 5.84375 -22.546875 C 5.863281 -22.828125 5.882812 -23.144531 5.90625 -23.5 C 5.925781 -23.851562 5.945312 -24.222656 5.96875 -24.609375 C 5.988281 -25.003906 6 -25.332031 6 -25.59375 C 6.03125 -26.082031 6.0625 -26.515625 6.09375 -26.890625 C 6.132812 -27.265625 6.195312 -27.597656 6.28125 -27.890625 C 6.800781 -29.835938 7.832031 -31.203125 9.375 -31.984375 C 10.925781 -32.765625 12.640625 -33.15625 14.515625 -33.15625 Z M 14.515625 -33.15625 "/></g></g></g><g fill="#000000" fill-opacity="1"><g transform="translate(195.655563, 337.946776)"><g><path d="M 14.671875 -18.828125 C 14.378906 -18.929688 13.921875 -19.007812 13.296875 -19.0625 C 12.679688 -19.125 12.207031 -19.117188 11.875 -19.046875 C 10.75 -18.785156 9.800781 -18.140625 9.03125 -17.109375 C 8.269531 -16.085938 7.800781 -14.789062 7.625 -13.21875 C 7.539062 -12.46875 7.488281 -11.726562 7.46875 -11 C 7.457031 -10.28125 7.488281 -9.582031 7.5625 -8.90625 C 7.75 -7.414062 8.160156 -6.164062 8.796875 -5.15625 C 9.429688 -4.144531 10.253906 -3.472656 11.265625 -3.140625 C 12.234375 -2.835938 13.144531 -2.757812 14 -2.90625 C 15.414062 -3.207031 16.515625 -4.054688 17.296875 -5.453125 C 18.085938 -6.859375 18.484375 -8.679688 18.484375 -10.921875 C 18.484375 -12.941406 18.144531 -14.640625 17.46875 -16.015625 C 16.800781 -17.398438 15.867188 -18.335938 14.671875 -18.828125 Z M 10.53125 -21.953125 C 11.832031 -22.179688 13.304688 -22.203125 14.953125 -22.015625 C 17.046875 -21.710938 18.785156 -21.132812 20.171875 -20.28125 C 21.171875 -19.570312 21.988281 -18.769531 22.625 -17.875 C 23.375 -16.820312 23.925781 -15.695312 24.28125 -14.5 C 24.632812 -13.3125 24.8125 -12.046875 24.8125 -10.703125 C 24.8125 -9.460938 24.644531 -8.300781 24.3125 -7.21875 C 23.894531 -5.6875 23.15625 -4.34375 22.09375 -3.1875 C 21.03125 -2.03125 19.804688 -1.191406 18.421875 -0.671875 C 17.753906 -0.410156 17.019531 -0.203125 16.21875 -0.046875 C 15.414062 0.0976562 14.546875 0.1875 13.609375 0.21875 C 11.742188 0.257812 10.082031 0.09375 8.625 -0.28125 C 6.71875 -0.84375 5.148438 -1.765625 3.921875 -3.046875 C 2.691406 -4.335938 1.832031 -6.046875 1.34375 -8.171875 C 1.269531 -8.472656 1.210938 -8.875 1.171875 -9.375 C 1.140625 -9.882812 1.125 -10.457031 1.125 -11.09375 C 1.125 -12.394531 1.175781 -13.347656 1.28125 -13.953125 C 1.625 -15.515625 2.269531 -16.851562 3.21875 -17.96875 C 4.175781 -19.09375 5.378906 -20.03125 6.828125 -20.78125 C 7.953125 -21.34375 9.1875 -21.734375 10.53125 -21.953125 Z M 10.53125 -21.953125 "/></g></g></g><g fill="#000000" fill-opacity="1"><g transform="translate(221.589715, 337.946776)"><g><path d="M 8.453125 -32.71875 C 9.429688 -32.9375 10.007812 -32.9375 10.1875 -32.71875 C 10.34375 -32.675781 10.421875 -32.019531 10.421875 -30.75 C 10.421875 -30.113281 10.421875 -28.84375 10.421875 -26.9375 C 10.421875 -25.039062 10.4375 -22.46875 10.46875 -19.21875 L 10.46875 -4.09375 L 10.703125 -3.703125 C 10.960938 -3.140625 11.425781 -2.78125 12.09375 -2.625 C 12.46875 -2.59375 12.769531 -2.484375 13 -2.296875 C 13.289062 -2.148438 13.472656 -1.914062 13.546875 -1.59375 C 13.628906 -1.28125 13.578125 -0.953125 13.390625 -0.609375 C 13.203125 -0.273438 12.863281 -0.09375 12.375 -0.0625 C 12.113281 -0.0195312 11.582031 0 10.78125 0 C 9.976562 0 8.882812 0 7.5 0 C 4.25 0 2.441406 -0.0703125 2.078125 -0.21875 C 1.546875 -0.519531 1.328125 -0.941406 1.421875 -1.484375 C 1.515625 -2.023438 1.898438 -2.390625 2.578125 -2.578125 C 3.515625 -2.835938 4.113281 -3.320312 4.375 -4.03125 C 4.375 -4.101562 4.378906 -4.472656 4.390625 -5.140625 C 4.410156 -5.816406 4.421875 -6.742188 4.421875 -7.921875 C 4.421875 -9.097656 4.421875 -10.476562 4.421875 -12.0625 C 4.421875 -13.65625 4.421875 -15.367188 4.421875 -17.203125 L 4.375 -28.171875 L 4.140625 -28.5625 C 3.878906 -29.164062 3.414062 -29.519531 2.75 -29.625 C 2.113281 -29.738281 1.796875 -30.003906 1.796875 -30.421875 C 1.796875 -30.710938 1.925781 -30.9375 2.1875 -31.09375 C 2.332031 -31.164062 2.617188 -31.265625 3.046875 -31.390625 C 3.484375 -31.523438 4.070312 -31.664062 4.8125 -31.8125 C 5.113281 -31.882812 5.457031 -31.96875 5.84375 -32.0625 C 6.238281 -32.15625 6.625 -32.238281 7 -32.3125 C 7.375 -32.394531 7.691406 -32.472656 7.953125 -32.546875 C 8.210938 -32.617188 8.378906 -32.675781 8.453125 -32.71875 Z M 8.453125 -32.71875 "/></g></g></g><g fill="#000000" fill-opacity="1"><g transform="translate(236.601274, 337.946776)"><g><path d="M 9.46875 -22.296875 C 9.875 -22.367188 10.097656 -22.347656 10.140625 -22.234375 C 10.171875 -22.160156 10.195312 -21.441406 10.21875 -20.078125 C 10.238281 -18.710938 10.269531 -16.460938 10.3125 -13.328125 L 10.359375 -3.984375 L 10.59375 -3.578125 C 10.882812 -3.054688 11.238281 -2.738281 11.65625 -2.625 C 12.289062 -2.445312 12.726562 -2.265625 12.96875 -2.078125 C 13.207031 -1.890625 13.328125 -1.625 13.328125 -1.28125 C 13.328125 -0.832031 13.066406 -0.460938 12.546875 -0.171875 C 12.328125 -0.0546875 10.609375 0 7.390625 0 C 4.140625 0 2.382812 -0.0703125 2.125 -0.21875 C 1.789062 -0.375 1.566406 -0.617188 1.453125 -0.953125 C 1.335938 -1.285156 1.394531 -1.601562 1.625 -1.90625 C 1.769531 -2.238281 2.179688 -2.519531 2.859375 -2.75 C 3.609375 -2.9375 4.035156 -3.328125 4.140625 -3.921875 C 4.253906 -4.253906 4.289062 -6.703125 4.25 -11.265625 C 4.25 -12.972656 4.25 -14.25 4.25 -15.09375 C 4.25 -15.9375 4.234375 -16.507812 4.203125 -16.8125 C 4.128906 -17.476562 4.070312 -17.882812 4.03125 -18.03125 C 3.882812 -18.332031 3.734375 -18.546875 3.578125 -18.671875 C 3.429688 -18.804688 3.15625 -18.945312 2.75 -19.09375 C 2.039062 -19.363281 1.757812 -19.738281 1.90625 -20.21875 C 1.976562 -20.40625 2.070312 -20.535156 2.1875 -20.609375 C 2.332031 -20.679688 3.546875 -20.960938 5.828125 -21.453125 C 6.273438 -21.566406 6.710938 -21.671875 7.140625 -21.765625 C 7.566406 -21.859375 7.957031 -21.953125 8.3125 -22.046875 C 8.664062 -22.140625 8.953125 -22.203125 9.171875 -22.234375 C 9.398438 -22.273438 9.5 -22.296875 9.46875 -22.296875 Z M 6.609375 -32.65625 C 7.390625 -32.769531 8.097656 -32.675781 8.734375 -32.375 C 9.484375 -31.96875 10.035156 -31.363281 10.390625 -30.5625 C 10.742188 -29.757812 10.8125 -28.960938 10.59375 -28.171875 C 10.175781 -26.710938 9.203125 -25.835938 7.671875 -25.546875 C 6.253906 -25.359375 5.132812 -25.820312 4.3125 -26.9375 C 3.457031 -28.0625 3.304688 -29.257812 3.859375 -30.53125 C 4.117188 -31.125 4.5 -31.609375 5 -31.984375 C 5.507812 -32.359375 6.046875 -32.582031 6.609375 -32.65625 Z M 6.609375 -32.65625 "/></g></g></g><g fill="#000000" fill-opacity="1"><g transform="translate(251.332762, 337.946776)"><g><path d="M 14.671875 -18.828125 C 14.378906 -18.929688 13.921875 -19.007812 13.296875 -19.0625 C 12.679688 -19.125 12.207031 -19.117188 11.875 -19.046875 C 10.75 -18.785156 9.800781 -18.140625 9.03125 -17.109375 C 8.269531 -16.085938 7.800781 -14.789062 7.625 -13.21875 C 7.539062 -12.46875 7.488281 -11.726562 7.46875 -11 C 7.457031 -10.28125 7.488281 -9.582031 7.5625 -8.90625 C 7.75 -7.414062 8.160156 -6.164062 8.796875 -5.15625 C 9.429688 -4.144531 10.253906 -3.472656 11.265625 -3.140625 C 12.234375 -2.835938 13.144531 -2.757812 14 -2.90625 C 15.414062 -3.207031 16.515625 -4.054688 17.296875 -5.453125 C 18.085938 -6.859375 18.484375 -8.679688 18.484375 -10.921875 C 18.484375 -12.941406 18.144531 -14.640625 17.46875 -16.015625 C 16.800781 -17.398438 15.867188 -18.335938 14.671875 -18.828125 Z M 10.53125 -21.953125 C 11.832031 -22.179688 13.304688 -22.203125 14.953125 -22.015625 C 17.046875 -21.710938 18.785156 -21.132812 20.171875 -20.28125 C 21.171875 -19.570312 21.988281 -18.769531 22.625 -17.875 C 23.375 -16.820312 23.925781 -15.695312 24.28125 -14.5 C 24.632812 -13.3125 24.8125 -12.046875 24.8125 -10.703125 C 24.8125 -9.460938 24.644531 -8.300781 24.3125 -7.21875 C 23.894531 -5.6875 23.15625 -4.34375 22.09375 -3.1875 C 21.03125 -2.03125 19.804688 -1.191406 18.421875 -0.671875 C 17.753906 -0.410156 17.019531 -0.203125 16.21875 -0.046875 C 15.414062 0.0976562 14.546875 0.1875 13.609375 0.21875 C 11.742188 0.257812 10.082031 0.09375 8.625 -0.28125 C 6.71875 -0.84375 5.148438 -1.765625 3.921875 -3.046875 C 2.691406 -4.335938 1.832031 -6.046875 1.34375 -8.171875 C 1.269531 -8.472656 1.210938 -8.875 1.171875 -9.375 C 1.140625 -9.882812 1.125 -10.457031 1.125 -11.09375 C 1.125 -12.394531 1.175781 -13.347656 1.28125 -13.953125 C 1.625 -15.515625 2.269531 -16.851562 3.21875 -17.96875 C 4.175781 -19.09375 5.378906 -20.03125 6.828125 -20.78125 C 7.953125 -21.34375 9.1875 -21.734375 10.53125 -21.953125 Z M 10.53125 -21.953125 "/></g></g></g></svg>